<svg width="19" height="19" viewBox="0 0 19 19" fill="none" xmlns="http://www.w3.org/2000/svg">
<path d="M9.39749 0.00636718L9.5 0C9.91661 0 10.2604 0.311751 10.3108 0.714696L10.3172 0.817204V8.6828H18.1828C18.5994 8.6828 18.9432 8.99455 18.9936 9.39749L19 9.5C19 9.91661 18.6882 10.2604 18.2853 10.3108L18.1828 10.3172H10.3172V18.1828C10.3172 18.5994 10.0055 18.9432 9.60251 18.9936L9.5 19C9.08339 19 8.73959 18.6882 8.68916 18.2853L8.6828 18.1828V10.3172H0.817204C0.400592 10.3172 0.0567941 10.0055 0.00636718 9.60251L0 9.5C0 9.08339 0.311751 8.73959 0.714696 8.68916L0.817204 8.6828H8.6828V0.817204C8.6828 0.400592 8.99455 0.0567941 9.39749 0.00636718L9.5 0L9.39749 0.00636718Z" fill="#007AFF"/>
</svg>
