<svg width="21" height="21" viewBox="0 0 21 21" fill="none" xmlns="http://www.w3.org/2000/svg">
<path fill-rule="evenodd" clip-rule="evenodd" d="M8.17955 4.4567L6.37343 1.40414C5.56909 0.0446848 3.81498 -0.405316 2.45553 0.399035C2.21245 0.542861 1.99201 0.721901 1.80139 0.930326C0.444762 2.4137 -0.162518 3.82605 0.03717 5.16529C0.446397 7.90983 2.37595 11.0447 5.80409 14.6037L6.10181 14.8978L6.39633 15.1959L6.40214 15.1916C9.95532 18.624 13.0902 20.5536 15.8347 20.9628C17.1739 21.1625 18.5863 20.5552 20.0697 19.1986C20.2781 19.008 20.4571 18.7876 20.601 18.5445C21.4053 17.185 20.9553 15.4309 19.5959 14.6266L16.5433 12.8205L16.3915 12.7378C15.6728 12.3796 14.8176 12.4036 14.1167 12.8109L13.1655 13.3635L13.055 13.4209C12.5684 13.6443 11.988 13.5448 11.6032 13.1601L7.83993 9.39675L7.75623 9.30463C7.41561 8.8915 7.36311 8.30493 7.63646 7.83449L8.18913 6.88334C8.62549 6.13237 8.62182 5.20419 8.17955 4.4567ZM19.2598 18.3131C18.0048 19.4609 16.9288 19.9127 16.0117 19.776C13.6546 19.4245 10.8397 17.7373 7.58614 14.6632L7.02591 14.1257L6.64744 13.75C3.38274 10.3601 1.58779 7.42787 1.22404 4.98832C1.08729 4.07117 1.53914 2.99517 2.6869 1.74018C2.79754 1.6192 2.92549 1.51528 3.06658 1.4318C3.81181 0.990867 4.76137 1.19935 5.25787 1.88861L5.34066 2.0152L7.14677 5.06776C7.36779 5.44131 7.36963 5.90517 7.15156 6.28046L6.59889 7.23162C6.07437 8.13432 6.16917 9.2661 6.83035 10.068L6.95177 10.2037L10.7547 14.0086C11.4929 14.7468 12.6113 14.9451 13.5558 14.5114L13.718 14.4288L14.7195 13.8484C15.0686 13.6456 15.4961 13.6323 15.8562 13.8118L15.9697 13.8745L18.9848 15.6593C19.7739 16.1262 20.0351 17.1443 19.5682 17.9334C19.4847 18.0745 19.3808 18.2025 19.2598 18.3131Z" fill="#007AFF"/>
</svg>
