<svg width="16" height="23" viewBox="0 0 16 23" fill="none" xmlns="http://www.w3.org/2000/svg">
<path fill-rule="evenodd" clip-rule="evenodd" d="M7.99998 0C10.5327 0 12.586 2.006 12.586 4.48052V11.4502C12.586 13.9247 10.5327 15.9307 7.99998 15.9307C5.4672 15.9307 3.41399 13.9247 3.41399 11.4502V4.48052C3.41399 2.006 5.4672 0 7.99998 0ZM0.611465 10.2837C0.915398 10.2837 1.16754 10.5003 1.21493 10.7842L1.22293 10.8811V11.0124C1.22293 14.7363 4.25936 17.7512 8 17.7512C11.6611 17.7512 14.6475 14.8632 14.773 11.2491L14.7771 11.0124V10.8914C14.7771 10.5615 15.0508 10.294 15.3885 10.294C15.6925 10.294 15.9446 10.5107 15.992 10.7945L16 10.8914L15.9962 11.2594C15.8709 15.3224 12.6641 18.6196 8.61133 18.9232L8.61146 22.4026C8.61146 22.7325 8.3377 23 8 23C7.69607 23 7.44393 22.7834 7.39654 22.4995L7.38854 22.4026L7.38901 18.9232C3.33869 18.62 0.133196 15.3267 0.00404601 11.2671L0 10.8811C0 10.5511 0.273762 10.2837 0.611465 10.2837ZM4.6369 4.48053C4.6369 2.66588 6.14259 1.19482 7.99996 1.19482C9.85732 1.19482 11.363 2.66588 11.363 4.48053V11.4502C11.363 13.2649 9.85732 14.7359 7.99996 14.7359C6.14259 14.7359 4.6369 13.2649 4.6369 11.4502V4.48053Z" fill="#007AFF"/>
</svg>
